<svg height="15" width="111" xmlns="http://www.w3.org/2000/svg"><path d="M7.429 14.285c2.85 0 4.978-1.52 5.7-4.104l-2.964-.703c-.437 1.254-1.463 1.995-2.831 1.995-2.166 0-3.591-1.843-3.591-4.123 0-2.261 1.406-4.142 3.61-4.142 1.634 0 2.546 1.045 2.793 1.881l3.116-.456C12.483 1.954 10.298.415 7.334.415 3.439.415.684 3.113.684 7.369c0 4.218 2.831 6.916 6.745 6.916zM22.53 14l.893-2.717h4.769L29.066 14h3.249L27.508.7h-3.325L19.357 14zm4.788-5.396h-3.021l1.482-4.541h.076zM42.818 14V5.45L48.556 14h3.249V.7h-3.002v8.55L43.065.7h-3.249V14zm23.936 0V8.585L71.352.7h-3.23l-2.698 4.978h-.095L62.65.7h-3.496l4.598 7.885V14zm16.906.285c3.952 0 6.859-2.945 6.859-6.935S87.612.415 83.66.415c-3.933 0-6.84 2.945-6.84 6.935s2.907 6.935 6.84 6.935zm0-2.812c-2.147 0-3.762-1.71-3.762-4.123s1.615-4.142 3.762-4.142c2.166 0 3.781 1.729 3.781 4.142s-1.615 4.123-3.781 4.123zM101.516 14V5.45l5.738 8.55h3.249V.7h-3.002v8.55L101.763.7h-3.249V14z" fill="#efefef"/></svg>